{"title":"Fast.and.Furious.5.Rio.Heist.2011.NEW.HQ.720p.VIDEO.TS.XviD.AC3.","uid":6425245,"size":1894221824,"categoryP":"video","categoryS":"hd___movies","magnet":"?xt=urn:btih:e3c36c9567691963d610fd9983f6dd3335b9081c&amp;dn=Fast.and.Furious.5.Rio.Heist.2011.NEW.HQ.720p.VIDEO.TS.XviD.AC3.&amp;tr=udp%3A%2F%2Ftracker.openbittorrent.com%3A80&amp;tr=udp%3A%2F%2Fopen.demonii.com%3A1337&amp;tr=udp%3A%2F%2Ftracker.coppersurfer.tk%3A6969&amp;tr=udp%3A%2F%2Fexodus.desync.com%3A6969","seeders":7,"leechers":0,"uploader":"WOZRXYU","files":1,"time":1306439931,"description":"Fast.and.Furious.5.Rio.Heist.2011.NEW.HQ.720p.VIDEO.TS.XviD.AC3.Hive-CM8\n\n &lt;a href=&quot;\nhttp://img24.imageshack.us/img24/4606/fastfivefullmovie.jpg&quot; rel=&quot;nofollow&quot; target=&quot;_NEW&quot;&gt;\nhttp://img24.imageshack.us/img24/4606/fastfivefullmovie.jpg&lt;/a&gt; &lt;a href=&quot;\nhttp://image.bayimg.com/oaimnaade.jpg&quot; rel=&quot;nofollow&quot; target=&quot;_NEW&quot;&gt;\nhttp://image.bayimg.com/oaimnaade.jpg&lt;/a&gt;\n\n\nDescription: Fast and Furious 5 Rio Heist 2011 NEW HQ VIDEO TS XviD AC3 Hive-CM8\n\nDominic and his crew find themselves on the wrong side of the law once again as they try to switch lanes between a ruthless drug lord and a relentless federal agent. \n\n Director: Justin Lin\n Writers: Chris Morgan, Gary Scott Thompson (characters)\nStars: Vin Diesel, Paul Walker and Dwayne Johnson\n\n\ninfo:\n========================\n\n\nVideo: 720x304 @bitrate 1900 2pass\n Audio: English AC3 2.0 Stereo\n Sample: yes 3 included, daylight,dark and action parts\n General\n Complete name: Fast.and.Furious.5.Rio.Heist.2011.NEW.HQ.VIDEO.TS.XviD.AC3.Hive-CM8.avi\n Format: AVI\n Format/Info: Audio Video Interleave\n File size: 1.76 GiB\n Duration: 1h 56mn\n Overall bit rate: 2 167 Kbps\n Writing application: Nandub v1.0rc2\n Writing library: Nandub build 1853/release\n\n Video\n ID: 0\n Format: MPEG-4 Visual\n Format profile: Advanced Simple@L5\n Format settings, BVOP: 2\n Format settings, QPel: Yes\n Format settings, GMC: No warppoints\n Format settings, Matrix: Default (H.263)\n Muxing mode: Packed bitstream\n Codec ID: XVID\n Codec ID/Hint: XviD\n Duration: 1h 56mn\n Bit rate: 1 901 Kbps\n Width: 720 pixels\n Height: 304 pixels\n Display aspect ratio: 2.35:1\n Frame rate: 25.000 fps\n Color space: YUV\n Chroma subsampling: 4:2:0\n Bit depth: 8 bits\n Scan type: Progressive\n Compression mode: Lossy\n Bits/(Pixel*Frame): 0.347\n Stream size: 1.55 GiB (88%)\n Writing library: XviD 1.2.1 (UTC 2008-12-04)\n\n Audio\n ID: 1\n Format: AC-3\n Format/Info: Audio Coding 3\n Mode extension: CM (complete main)\n Codec ID: 2000\n Duration: 1h 56mn\n Bit rate mode: Constant\n Bit rate: 256 Kbps\n Channel(s): 2 channels\n Channel positions: Front: L R\n Sampling rate: 48.0 KHz\n Bit depth: 16 bits\n Compression mode: Lossy\n Stream size: 213 MiB (12%)\n Alignment: Split accross interleaves\n Interleave, duration: 40 ms (1.00 video frame)\n Interleave, preload duration: 500 ms\n\nscreens:\n &lt;a href=&quot;\nhttp://img850.imageshack.us/img850/7200/fafaffaffaffaafafaafa.png&quot; rel=&quot;nofollow&quot; target=&quot;_NEW&quot;&gt;\nhttp://img850.imageshack.us/img850/7200/fafaffaffaffaafafaafa.png&lt;/a&gt; &lt;a href=&quot;\nhttp://img710.imageshack.us/img710/6569/89985956.png&quot; rel=&quot;nofollow&quot; target=&quot;_NEW&quot;&gt;\nhttp://img710.imageshack.us/img710/6569/89985956.png&lt;/a&gt; &lt;a href=&quot;\nhttp://img41.imageshack.us/img41/7726/fafafa.png&quot; rel=&quot;nofollow&quot; target=&quot;_NEW&quot;&gt;\nhttp://img41.imageshack.us/img41/7726/fafafa.png&lt;/a&gt; &lt;a href=&quot;\nhttp://img819.imageshack.us/img819/9828/fafaffaafa.png&quot; rel=&quot;nofollow&quot; target=&quot;_NEW&quot;&gt;\nhttp://img819.imageshack.us/img819/9828/fafaffaafa.png&lt;/a&gt; &lt;a href=&quot;\nhttp://img607.imageshack.us/img607/3509/fafaffaffafafaafa.png&quot; rel=&quot;nofollow&quot; target=&quot;_NEW&quot;&gt;\nhttp://img607.imageshack.us/img607/3509/fafaffaffafafaafa.png&lt;/a&gt;\n","torrent":{"xt":"urn:btih:e3c36c9567691963d610fd9983f6dd3335b9081c","amp;dn":"Fast.and.Furious.5.Rio.Heist.2011.NEW.HQ.720p.VIDEO.TS.XviD.AC3.","amp;tr":["udp%3A%2F%2Ftracker.openbittorrent.com%3A80","udp%3A%2F%2Fopen.demonii.com%3A1337","udp%3A%2F%2Ftracker.coppersurfer.tk%3A6969","udp%3A%2F%2Fexodus.desync.com%3A6969"],"infoHash":"e3c36c9567691963d610fd9983f6dd3335b9081c","infoHashBuffer":{"type":"Buffer","data":[227,195,108,149,103,105,25,99,214,16,253,153,131,246,221,51,53,185,8,28]},"announce":[],"urlList":[]}}